HIERARCHY
ROOT Hips
{
    OFFSET   0.000000   0.000000   0.000000
    CHANNELS 6 Xposition Yposition Zposition Zrotation Xrotation Yrotation
    JOINT Chest
    {
        OFFSET   0.000000   8.007230   0.000000
        CHANNELS 3 Zrotation Xrotation Yrotation
        JOINT Chest2
        {
            OFFSET   0.000000  22.077100   0.000000
            CHANNELS 3 Zrotation Xrotation Yrotation
            JOINT Neck
            {
                OFFSET   0.000000  23.255100   0.000000
                CHANNELS 3 Zrotation Xrotation Yrotation
                JOINT Head
                {
                    OFFSET   0.000000  14.370100   1.956600
                    CHANNELS 3 Zrotation Xrotation Yrotation
                    End Site
                    {
                        OFFSET   0.000000  19.566000   0.000000
                    }
                }
            }
            JOINT LeftCollar
            {
                OFFSET   3.911900  19.017000  -0.467063
                CHANNELS 3 Zrotation Xrotation Yrotation
                JOINT LeftShoulder
                {
                    OFFSET  10.383700   0.000000   0.000000
                    CHANNELS 3 Zrotation Xrotation Yrotation
                    JOINT LeftElbow
                    {
                        OFFSET  26.662100   0.001193   0.000980
                        CHANNELS 3 Zrotation Xrotation Yrotation
                        JOINT LeftWrist
                        {
                            OFFSET  28.869000  -0.000059  -0.000082
                            CHANNELS 3 Zrotation Xrotation Yrotation
                            JOINT LeftFinger0
                            {
                                OFFSET   2.044650  -2.323450   3.252850
                                CHANNELS 3 Zrotation Xrotation Yrotation
                                JOINT LeftFinger01
                                {
                                    OFFSET   3.088130   0.000000   0.000000
                                    CHANNELS 3 Zrotation Xrotation Yrotation
                                    JOINT LeftFinger02
                                    {
                                        OFFSET   2.639460   0.000000   0.000000
                                        CHANNELS 3 Zrotation Xrotation Yrotation
                                        End Site
                                        {
                                            OFFSET   2.582190   0.000000   0.000000
                                        }
                                    }
                                }
                            }
                            JOINT LeftFinger1
                            {
                                OFFSET   8.364480   0.000000   3.252850
                                CHANNELS 3 Zrotation Xrotation Yrotation
                                JOINT LeftFinger11
                                {
                                    OFFSET   4.646930   0.000000   0.000000
                                    CHANNELS 3 Zrotation Xrotation Yrotation
                                    JOINT LeftFinger12
                                    {
                                        OFFSET   2.323470   0.000000   0.000000
                                        CHANNELS 3 Zrotation Xrotation Yrotation
                                        End Site
                                        {
                                            OFFSET   2.273050   0.000000   0.000000
                                        }
                                    }
                                }
                            }
                            JOINT LeftFinger2
                            {
                                OFFSET   8.364490   0.000016   1.078090
                                CHANNELS 3 Zrotation Xrotation Yrotation
                                JOINT LeftFinger21
                                {
                                    OFFSET   5.111610   0.000000   0.000000
                                    CHANNELS 3 Zrotation Xrotation Yrotation
                                    JOINT LeftFinger22
                                    {
                                        OFFSET   2.788150   0.000016   0.000000
                                        CHANNELS 3 Zrotation Xrotation Yrotation
                                        End Site
                                        {
                                            OFFSET   2.727660   0.000000   0.000000
                                        }
                                    }
                                }
                            }
                            JOINT LeftFinger3
                            {
                                OFFSET   7.899780   0.000015  -1.078090
                                CHANNELS 3 Zrotation Xrotation Yrotation
                                JOINT LeftFinger31
                                {
                                    OFFSET   4.646930   0.000000   0.000000
                                    CHANNELS 3 Zrotation Xrotation Yrotation
                                    JOINT LeftFinger32
                                    {
                                        OFFSET   2.323470   0.000000   0.000000
                                        CHANNELS 3 Zrotation Xrotation Yrotation
                                        End Site
                                        {
                                            OFFSET   2.273050   0.000000   0.000000
                                        }
                                    }
                                }
                            }
                            JOINT LeftFinger4
                            {
                                OFFSET   7.435090   0.000000  -3.252850
                                CHANNELS 3 Zrotation Xrotation Yrotation
                                JOINT LeftFinger41
                                {
                                    OFFSET   3.717550   0.000000   0.000000
                                    CHANNELS 3 Zrotation Xrotation Yrotation
                                    JOINT LeftFinger42
                                    {
                                        OFFSET   1.858770   0.000000   0.000000
                                        CHANNELS 3 Zrotation Xrotation Yrotation
                                        End Site
                                        {
                                            OFFSET   1.818440   0.000000   0.000000
                                        }
                                    }
                                }
                            }
                        }
                    }
                }
            }
            JOINT RightCollar
            {
                OFFSET  -3.911910  19.017000  -0.467062
                CHANNELS 3 Zrotation Xrotation Yrotation
                JOINT RightShoulder
                {
                    OFFSET -10.383700   0.000014   0.000000
                    CHANNELS 3 Zrotation Xrotation Yrotation
                    JOINT RightElbow
                    {
                        OFFSET -26.662100   0.001225   0.001091
                        CHANNELS 3 Zrotation Xrotation Yrotation
                        JOINT RightWrist
                        {
                            OFFSET -28.869000  -0.000020  -0.000085
                            CHANNELS 3 Zrotation Xrotation Yrotation
                            JOINT RightFinger0
                            {
                                OFFSET  -2.044650  -2.323490   3.252850
                                CHANNELS 3 Zrotation Xrotation Yrotation
                                JOINT RightFinger01
                                {
                                    OFFSET  -3.088130   0.000000   0.000000
                                    CHANNELS 3 Zrotation Xrotation Yrotation
                                    JOINT RightFinger02
                                    {
                                        OFFSET  -2.639460   0.000000   0.000000
                                        CHANNELS 3 Zrotation Xrotation Yrotation
                                        End Site
                                        {
                                            OFFSET  -2.582190   0.000000   0.000000
                                        }
                                    }
                                }
                            }
                            JOINT RightFinger1
                            {
                                OFFSET  -8.364480   0.000000   3.252850
                                CHANNELS 3 Zrotation Xrotation Yrotation
                                JOINT RightFinger11
                                {
                                    OFFSET  -4.646930   0.000000   0.000000
                                    CHANNELS 3 Zrotation Xrotation Yrotation
                                    JOINT RightFinger12
                                    {
                                        OFFSET  -2.323470   0.000000   0.000000
                                        CHANNELS 3 Zrotation Xrotation Yrotation
                                        End Site
                                        {
                                            OFFSET  -2.273050   0.000000   0.000000
                                        }
                                    }
                                }
                            }
                            JOINT RightFinger2
                            {
                                OFFSET  -8.364480   0.000000   1.078090
                                CHANNELS 3 Zrotation Xrotation Yrotation
                                JOINT RightFinger21
                                {
                                    OFFSET  -5.111620   0.000000   0.000000
                                    CHANNELS 3 Zrotation Xrotation Yrotation
                                    JOINT RightFinger22
                                    {
                                        OFFSET  -2.788160   0.000000   0.000000
                                        CHANNELS 3 Zrotation Xrotation Yrotation
                                        End Site
                                        {
                                            OFFSET  -2.727660   0.000000   0.000000
                                        }
                                    }
                                }
                            }
                            JOINT RightFinger3
                            {
                                OFFSET  -7.899780   0.000000  -1.078090
                                CHANNELS 3 Zrotation Xrotation Yrotation
                                JOINT RightFinger31
                                {
                                    OFFSET  -4.646930   0.000000   0.000000
                                    CHANNELS 3 Zrotation Xrotation Yrotation
                                    JOINT RightFinger32
                                    {
                                        OFFSET  -2.323470   0.000000   0.000000
                                        CHANNELS 3 Zrotation Xrotation Yrotation
                                        End Site
                                        {
                                            OFFSET  -2.273050   0.000000   0.000000
                                        }
                                    }
                                }
                            }
                            JOINT RightFinger4
                            {
                                OFFSET  -7.435090   0.000000  -3.252850
                                CHANNELS 3 Zrotation Xrotation Yrotation
                                JOINT RightFinger41
                                {
                                    OFFSET  -3.717550   0.000000   0.000000
                                    CHANNELS 3 Zrotation Xrotation Yrotation
                                    JOINT RightFinger42
                                    {
                                        OFFSET  -1.858760   0.000000   0.000000
                                        CHANNELS 3 Zrotation Xrotation Yrotation
                                        End Site
                                        {
                                            OFFSET  -1.818440   0.000000   0.000000
                                        }
                                    }
                                }
                            }
                        }
                    }
                }
            }
        }
    }
    JOINT LeftHip
    {
        OFFSET   9.783030   0.000000   0.000000
        CHANNELS 3 Zrotation Xrotation Yrotation
        JOINT LeftKnee
        {
            OFFSET   0.000063 -41.789100   0.000608
            CHANNELS 3 Zrotation Xrotation Yrotation
            JOINT LeftAnkle
            {
                OFFSET   0.000048 -41.133200  -0.000184
                CHANNELS 3 Zrotation Xrotation Yrotation
                JOINT LeftToe
                {
                    OFFSET   0.000000  -6.358960  14.674500
                    CHANNELS 3 Zrotation Xrotation Yrotation
                    End Site
                    {
                        OFFSET   0.000000   0.000000   3.913200
                    }
                }
            }
        }
    }
    JOINT RightHip
    {
        OFFSET  -9.783030   0.000000   0.000000
        CHANNELS 3 Zrotation Xrotation Yrotation
        JOINT RightKnee
        {
            OFFSET   0.000071 -41.789100   0.001239
            CHANNELS 3 Zrotation Xrotation Yrotation
            JOINT RightAnkle
            {
                OFFSET   0.000037 -41.133200  -0.000166
                CHANNELS 3 Zrotation Xrotation Yrotation
                JOINT RightToe
                {
                    OFFSET   0.000000  -6.358960  14.674500
                    CHANNELS 3 Zrotation Xrotation Yrotation
                    End Site
                    {
                        OFFSET   0.000000   0.000000   3.913200
                    }
                }
            }
        }
    }
}
MOTION
Frames: 4
Frame Time:   0.016667
 -0.794596  89.636000  -4.124510  -2.111390  -5.628000  -2.334230   0.457685   3.173620  -0.116728   0.923979   6.346170  -0.259486   1.495250  -0.548619   0.014410   2.454650  -1.099220   1.586380  -6.222800   0.594255  -1.923630 -72.858200  15.428000   5.462640  -2.212180  -9.863040 -19.594600  14.835600 -23.102900   9.529180  55.534500  51.217100 -92.671000 -31.900000   0.010883   0.006833 -10.958100  -0.004526   0.002553 -31.145100   4.363470  -7.175860 -25.706300  -0.000709   0.008841 -17.994400   0.006126   0.004652 -27.687900  -3.957530   7.493360 -31.652900  -0.000620   0.001498 -21.073200   0.009022   0.001877 -27.569000  -3.942120   7.501450 -30.941300   0.007259   0.004503 -20.606900   0.003007   0.004543 -29.180200  -4.152150   7.387720 -44.172500   0.001143   0.009388 -29.418900   0.009037   0.009287  11.622500   1.254950   6.024560  69.146800  15.675600  -7.658240  -3.268210  -2.490420  16.105100 -13.813400 -12.634700   1.969270 -47.737900  46.881600  92.871700  25.315700   0.007921  -0.003666   7.657820   0.000000  -0.002619  35.269300   9.901470  13.665500  29.827900  -0.000848  -0.005332  20.879500  -0.000243  -0.000118  29.846400   3.187770   5.542870  45.000700  -0.003363  -0.004365  29.970500  -0.001343  -0.000347  28.759900   1.169640   2.130720  41.031400  -0.002978  -0.001661  27.326900  -0.003022  -0.000236  38.976100  -0.788135  -0.973790  58.474300  -0.002404  -0.006384  38.943800  -0.001236  -0.002203   1.048030   6.835920   0.903710   1.028840   0.047178   0.598584  -1.528670  -2.621200   0.679259  -0.000000   0.000000   0.000000   4.267410   4.608570  -0.086396  -1.702060   4.271910  -2.850430  -1.465360  -4.423650   2.517130  -0.000000   0.000000  -0.000000
 -0.794721  89.636000  -4.116700  -2.111380  -5.633750  -2.334250   0.457597   3.173740  -0.111516   0.923516   6.346430  -0.249032   1.495470  -0.548372   0.014405   2.455020  -1.099220   1.578730  -6.222640   0.594252  -1.931140 -72.862800  15.428500   5.456570  -2.213970  -9.877050 -19.581400  14.845900 -23.102700   9.529600  55.532800  51.217700 -92.667200 -31.908100   0.010886   0.006834 -10.958100  -0.004528   0.002552 -31.151200   4.365100  -7.176770 -25.711400  -0.000716   0.008841 -17.998000   0.006125   0.004646 -27.685800  -3.965120   7.508140 -31.647200  -0.000629   0.001491 -21.073200   0.009027   0.001871 -27.566700  -3.949670   7.516250 -30.936000   0.007260   0.004503 -20.603400   0.003012   0.004545 -29.171900  -4.159170   7.402840 -44.160100   0.001141   0.009383 -29.410700   0.009040   0.009280  11.622700   1.254950   6.024560  69.128300  15.684200  -7.649410  -3.265320  -2.501820  16.089600 -13.815500 -12.634800   1.960980 -47.739200  46.881600  92.871700  25.308700   0.007926  -0.003675   7.654340   0.000000  -0.002618  35.270300   9.905880  13.670800  29.830400  -0.000845  -0.005341  20.881200  -0.000241  -0.000117  29.849500   3.191720   5.545810  45.005900  -0.003361  -0.004363  29.974000  -0.001345  -0.000348  28.759400   1.176100   2.142270  41.036100  -0.002978  -0.001662  27.330000  -0.003022  -0.000236  38.979300  -0.788105  -0.973722  58.479100  -0.002404  -0.006389  38.947100  -0.001236  -0.002202   1.047820   6.836360   0.899990   1.029770   0.059020   0.606835  -1.528760  -2.624640   0.679239   0.000000   0.000000  -0.000000   4.267790   4.625350  -0.099304  -1.699520   4.263150  -2.860220  -1.478460  -4.422710   2.536530  -0.000000   0.000000   0.000000
 -0.794846  89.636000  -4.103190  -2.111520  -5.643270  -2.334290   0.457509   3.174610  -0.103207   0.922884   6.348250  -0.232382   1.495690  -0.548124   0.014396   2.455390  -1.099230   1.571080  -6.222480   0.594245  -1.938640 -72.869300  15.431300   5.444100  -2.214600  -9.898540 -19.560300  14.863100 -23.102600   9.530010  55.531200  51.218300 -92.663400 -31.916300   0.010894   0.006839 -10.958100  -0.004529   0.002552 -31.159700   4.369420  -7.181400 -25.718700  -0.000735   0.008842 -18.003100   0.006119   0.004630 -27.683700  -3.972710   7.522920 -31.641500  -0.000650   0.001476 -21.073200   0.009042   0.001858 -27.564400  -3.957230   7.531050 -30.930700   0.007262   0.004502 -20.599900   0.003027   0.004549 -29.161600  -4.166180   7.417950 -44.147700   0.001134   0.009368 -29.402400   0.009050   0.009265  11.623000   1.254940   6.024560  69.100200  15.697700  -7.635960  -3.260350  -2.521420  16.068300 -13.818400 -12.634900   1.949250 -47.742500  46.881600  92.871700  25.295700   0.007943  -0.003685   7.647820   0.000000  -0.002615  35.273400   9.914650  13.680800  29.835600  -0.000843  -0.005357  20.884900  -0.000240  -0.000116  29.856400   3.199040   5.552770  45.017400  -0.003358  -0.004362  29.981600  -0.001347  -0.000349  28.758600   1.186300   2.161070  41.047900  -0.002977  -0.001663  27.337900  -0.003022  -0.000236  38.985700  -0.788076  -0.973654  58.488600  -0.002404  -0.006403  38.953400  -0.001234  -0.002201   1.048020   6.839390   0.892467   1.030700   0.070862   0.621694  -1.528840  -2.628070   0.679220   0.000000   0.000000   0.000000   4.265810   4.657130  -0.121414  -1.691970   4.242150  -2.879220  -1.498900  -4.418920   2.574440   0.000000   0.000000   0.000000
 -0.794790  89.636000  -4.091290  -2.112230  -5.650940  -2.337700   0.457336   3.178270  -0.096667   0.921977   6.355660  -0.219137   1.494730  -0.549912   0.014386   2.454860  -1.103030   1.573810  -6.222590   0.591857  -1.937180 -72.871600  15.442900   5.428190  -2.209960  -9.914380 -19.542200  14.876500 -23.103000   9.527600  55.543200  51.215900 -92.689200 -31.905200   0.010902   0.006852 -10.952600  -0.004523   0.002562 -31.160000   4.377850  -7.195320 -25.720300  -0.000768   0.008838 -18.004300   0.006108   0.004607 -27.685700  -3.965200   7.508250 -31.647800  -0.000680   0.001459 -21.077400   0.009066   0.001840 -27.566300  -3.949740   7.516360 -30.936300   0.007270   0.004506 -20.603600   0.003050   0.004551 -29.161300  -4.158090   7.403590 -44.147700   0.001118   0.009339 -29.402400   0.009068   0.009247  11.623100   1.252770   6.028350  69.083200  15.707000  -7.626320  -3.257680  -2.540000  16.060300 -13.819200 -12.644400   1.943870 -47.734400  46.875000  92.860900  25.278400   0.007974  -0.003679   7.639200   0.000000  -0.002607  35.277600   9.927640  13.694200  29.841400  -0.000848  -0.005375  20.889000  -0.000240  -0.000120  29.866100   3.208560   5.565950  45.033200  -0.003358  -0.004365  29.992100  -0.001344  -0.000348  28.757900   1.194770   2.178500  41.065600  -0.002977  -0.001662  27.349700  -0.003022  -0.000237  38.992100  -0.788151  -0.973672  58.498200  -0.002404  -0.006424  38.959800  -0.001230  -0.002200   1.050830   6.877700   0.881029   1.028940   0.026964   0.637324  -1.528720  -2.619340   0.680259   0.000000   0.000000   0.000000   4.258420   4.691320  -0.140443  -1.678370   4.211200  -2.904740  -1.513210  -4.410990   2.618790   0.000000   0.000000  -0.000000
